<svg xmlns="http://www.w3.org/2000/svg" xmlns:xlink="http://www.w3.org/1999/xlink" version="1.1" x="0px" y="0px" viewBox="0 0 100 125" style="enable-background:new 0 0 100 100;" xml:space="preserve"><g><g><path fill="#AAAAAA" d="M76.5,85.1c0,0.3,0,0.6,0,0.9c-2.2,0.3-2.6,0.8-3.2,2.9c-0.3,0.9-0.7,1.9-1.4,2.4c-1.5,1.1-1,2.6-0.6,3.5    c0.5,1.2,0.6,2.2,0.2,3.4c-0.2,0-0.4,0-0.6,0c-0.4-0.1-0.8-0.2-1.2-0.3c-4.8-0.7-9.6-1.5-14.4-2.2c-1.5-0.2-2.7-0.7-2.8-2.4    c0-0.4-0.2-0.9-0.1-1.3c0.2-1.9,0-3.5-1.8-4.6c-0.2-0.1-0.5-0.4-0.5-0.7c-0.1-1.7-0.9-2.8-2.6-3.2c-0.3-0.1-0.8-0.6-0.8-0.9    c0.1-1.5-0.8-2.1-2-2.4c-1.4-0.4-2.3-1.3-3-2.5c-0.5-0.9-1.3-1.8-2.2-2.3c-1.6-0.8-3.4-1.3-5.2-1.9c-1.1-0.4-1.1-1.4-0.7-2    c1.6-2.5,0.2-4.7-0.4-7c-0.4-1.4-1.3-2.6-1.8-4c-0.4-0.8-0.6-1.8-0.9-2.6c-0.4-1.2-1-2.3-1.1-3.5c0-0.6,0.9-1.2,1.3-1.9    c0.5-0.8,0.8-1.6-0.3-2.2c-1.4-0.7-1.9-1.9-1.8-3.4c0.2-1.6,0.3-3,0.5-4.6c0.4,0.8,0.8,1.2,1.3,2.4c0-1,0-1.6,0-2.2    c0-0.4-0.3-0.8-0.4-1.2c-0.3,0.2-0.6,0.5-0.9,0.7c-0.6-0.7-1.7-1.4-1.7-2c0.3-2.6-1-4.6-2.3-6.6c-1.5-2.3-0.5-4.7,0.1-6.8    c0.3-1,0.8-2,0.4-3c-0.6-1.4-1.3-2.7-2-4.1c0-0.5,0-1,0-1.6c0.5-0.7,1.1-1.3,1.6-2c1.3-1.8,2.5-3.7,3.7-5.6    c0.2-0.4,0.3-0.9,0.2-1.3c-0.3-1.5-0.2-2.8,0.7-4.1c0.1,0,0.2,0,0.3,0c4.1,1.5,8.3,3,12.4,4.4c4.1,1.4,8.3,2.8,12.6,4.2    c-0.3,1.1-0.5,2.1-0.8,3c-1.9,6.2-3.9,12.4-5.9,18.6c-0.4,1.4-0.2,2.6,0.5,3.8c3.9,6.7,7.8,13.4,12.4,19.7    c4.2,5.7,8,11.8,11.8,17.9c1.1,1.7,1.4,3.9,2.2,5.9C75.6,83.3,76,84.2,76.5,85.1z"/></g></g></svg>