<svg xmlns="http://www.w3.org/2000/svg" xmlns:xlink="http://www.w3.org/1999/xlink" width="500" zoomAndPan="magnify" viewBox="0 0 375 374.999991" height="500" preserveAspectRatio="xMidYMid meet" version="1.0"><defs><clipPath id="c53c920315"><path d="M 120 30.699219 L 181 30.699219 L 181 261 L 120 261 Z M 120 30.699219 " clip-rule="nonzero"/></clipPath><clipPath id="c593d60860"><path d="M 0 184 L 375 184 L 375 336.699219 L 0 336.699219 Z M 0 184 " clip-rule="nonzero"/></clipPath></defs><path fill="#50b5f8" d="M 90.011719 142.261719 L 29.429688 174.738281 L 29.429688 258.117188 L 90.011719 219.585938 L 90.011719 142.261719 " fill-opacity="1" fill-rule="nonzero"/><path fill="#50b5f8" d="M 90.011719 295.808594 L 90.011719 294.976562 L 88.535156 295.808594 Z M 90.011719 295.808594 " fill-opacity="1" fill-rule="nonzero"/><g clip-path="url(#c53c920315)"><path fill="#50b5f8" d="M 180.878906 30.585938 L 120.296875 63.0625 L 120.296875 200.980469 L 180.878906 260.132812 L 180.878906 30.585938 " fill-opacity="1" fill-rule="nonzero"/></g><path fill="#50b5f8" d="M 240.433594 231.605469 C 246.722656 227.679688 253.015625 223.816406 259.316406 219.949219 L 271.726562 212.34375 L 271.726562 69.5625 L 211.167969 102.039062 L 211.167969 250.363281 C 216.132812 247.09375 221.359375 243.707031 226.902344 240.171875 C 231.363281 237.300781 235.886719 234.429688 240.433594 231.605469 " fill-opacity="1" fill-rule="nonzero"/><g clip-path="url(#c593d60860)"><path fill="#004aad" d="M 372.761719 196.398438 L 304.332031 184.25 C 302.785156 183.96875 301.636719 185.65625 302.46875 186.992188 L 315.074219 207.425781 L 310.304688 210.246094 L 307.128906 212.132812 L 268.867188 235.519531 C 262.597656 239.363281 256.355469 243.214844 250.121094 247.105469 C 245.644531 249.90625 241.183594 252.71875 236.742188 255.578125 C 226.117188 262.371094 215.535156 269.273438 205.074219 276.371094 C 199.859375 279.910156 194.648438 283.496094 189.46875 287.140625 C 188.097656 288.101562 186.738281 289.097656 185.367188 290.066406 L 181.804688 286.589844 L 126.332031 232.414062 L 117.472656 223.769531 L 107.820312 229.90625 L 95.753906 237.59375 L 0.726562 298.046875 L 12.148438 317.25 L 112.320312 261.726562 L 112.332031 261.726562 L 150.816406 304.515625 L 170.5 326.386719 L 177.636719 334.332031 L 179.277344 336.136719 L 193.160156 329.292969 C 198.839844 326.492188 204.476562 323.597656 210.054688 320.625 C 215.640625 317.660156 221.183594 314.625 226.714844 311.566406 C 237.761719 305.441406 248.691406 299.125 259.5625 292.714844 C 270.449219 286.332031 281.214844 279.734375 291.96875 273.117188 L 330.058594 249.460938 L 332.238281 248.066406 L 337.933594 244.433594 L 349.988281 263.941406 C 350.796875 265.265625 352.789062 265.03125 353.269531 263.542969 L 374.179688 198.753906 C 374.519531 197.699219 373.851562 196.585938 372.761719 196.398438 " fill-opacity="1" fill-rule="nonzero"/></g></svg>