<svg xmlns="http://www.w3.org/2000/svg" xmlns:xlink="http://www.w3.org/1999/xlink" width="500" zoomAndPan="magnify" viewBox="0 0 375 374.999991" height="500" preserveAspectRatio="xMidYMid meet" version="1.0"><defs><clipPath id="853ce7120e"><path d="M 3 16.097656 L 373 16.097656 L 373 358 L 3 358 Z M 3 16.097656 " clip-rule="nonzero"/></clipPath></defs><g clip-path="url(#853ce7120e)"><path fill="#1c71a2" d="M 356.515625 168.746094 C 355.898438 168.625 355.261719 168.519531 354.597656 168.445312 C 346.101562 167.421875 337.410156 173.695312 336.070312 182.144531 C 335.230469 187.480469 336.734375 192.777344 345.238281 194.035156 C 347.878906 194.425781 350.265625 192.378906 350.421875 189.714844 C 350.535156 187.835938 349.519531 186.023438 347.796875 185.277344 C 346.457031 184.699219 345.214844 183.597656 345.515625 181.507812 C 345.921875 178.65625 348.746094 176.765625 351.605469 177.097656 C 355.695312 177.570312 361.515625 179.535156 361.515625 186.902344 C 361.515625 186.902344 361.015625 208.640625 332.859375 200.242188 C 332.859375 200.242188 317.546875 134.535156 234.546875 109.839844 C 234.546875 109.839844 170.816406 94.03125 122.898438 113.300781 C 122.898438 113.300781 85.3125 89.921875 56.5 99.6875 C 54.738281 100.285156 53.882812 102.285156 54.679688 103.964844 L 71.414062 138.992188 C 71.414062 138.992188 46.101562 159.867188 33.992188 188.558594 C 32.96875 190.988281 31.246094 193.058594 28.953125 194.367188 L 25.386719 196.40625 C 23.234375 197.640625 20.839844 198.398438 18.371094 198.640625 L 13.855469 199.085938 C 7.421875 199.710938 2.914062 205.738281 4.140625 212.089844 L 12.714844 256.550781 C 13.871094 262.550781 19.117188 266.882812 25.226562 266.882812 L 35.21875 266.882812 C 37.90625 266.882812 40.488281 267.929688 42.414062 269.796875 L 81.925781 308.074219 C 83.839844 309.925781 85.132812 312.3125 85.660156 314.914062 L 93.6875 355.0625 C 94.011719 356.679688 95.433594 357.851562 97.089844 357.851562 L 142.660156 357.851562 C 142.660156 357.851562 147.105469 358.839844 150.070312 334.140625 C 150.070312 334.140625 188.109375 343.035156 215.28125 335.128906 L 219.453125 356.445312 C 219.609375 357.265625 220.332031 357.859375 221.175781 357.859375 L 268.355469 357.859375 C 269.964844 357.859375 271.367188 356.746094 271.71875 355.171875 L 282.960938 305.976562 C 282.960938 305.976562 335.824219 280.78125 334.839844 211.613281 C 334.839844 211.613281 363.410156 216.550781 370.777344 195.730469 C 375.011719 183.742188 368.972656 171.207031 356.515625 168.746094 Z M 77.578125 192.335938 C 72.121094 192.335938 67.699219 187.910156 67.699219 182.453125 C 67.699219 177 72.121094 172.574219 77.578125 172.574219 C 83.03125 172.574219 87.457031 177 87.457031 182.453125 C 87.457031 187.910156 83.03125 192.335938 77.578125 192.335938 Z M 234.261719 131.136719 C 233.449219 133.191406 231.152344 134.175781 229.074219 133.429688 C 191.496094 120 156.90625 128.003906 145.933594 131.234375 C 143.894531 131.835938 141.734375 130.773438 140.980469 128.78125 L 140.972656 128.765625 C 140.148438 126.574219 141.328125 124.144531 143.5625 123.46875 C 155.496094 119.871094 191.675781 111.398438 231.914062 125.859375 C 234.042969 126.621094 235.089844 129.035156 234.261719 131.136719 Z M 227.140625 51.03125 C 227.140625 70.296875 211.527344 85.910156 192.265625 85.910156 C 173 85.910156 157.386719 70.296875 157.386719 51.03125 C 157.386719 31.769531 173.007812 16.15625 192.265625 16.15625 C 211.519531 16.15625 227.140625 31.769531 227.140625 51.03125 Z M 227.140625 51.03125 " fill-opacity="1" fill-rule="nonzero"/></g></svg>