<svg xmlns="http://www.w3.org/2000/svg" xmlns:xlink="http://www.w3.org/1999/xlink" width="500" zoomAndPan="magnify" viewBox="0 0 375 374.999991" height="500" preserveAspectRatio="xMidYMid meet" version="1.0"><defs><clipPath id="c4ad8cfa9c"><path d="M 5 16.058594 L 374 16.058594 L 374 347.558594 L 5 347.558594 Z M 5 16.058594 " clip-rule="nonzero"/></clipPath></defs><g clip-path="url(#c4ad8cfa9c)"><path fill="#004aad" d="M 209.835938 131.320312 C 209.507812 133.636719 207.464844 135.292969 205.199219 135.292969 C 204.980469 135.292969 204.703125 135.292969 204.484375 135.238281 C 186.875 132.53125 167.332031 132.53125 149.777344 135.238281 C 147.238281 135.625 144.808594 133.914062 144.425781 131.320312 C 144.039062 128.777344 145.804688 126.351562 148.34375 125.964844 C 166.890625 123.09375 187.371094 123.09375 205.917969 125.964844 C 208.511719 126.351562 210.222656 128.777344 209.835938 131.320312 Z M 373.949219 193.804688 C 373.949219 205.949219 364.070312 215.886719 351.871094 215.886719 L 326.863281 215.886719 C 326.585938 249.226562 307.597656 280.582031 274.589844 302.222656 L 266.75 339.8125 C 265.867188 344.117188 261.945312 347.265625 257.53125 347.265625 L 218.726562 347.265625 C 214.03125 347.265625 210.058594 343.789062 209.394531 339.152344 L 207.738281 327.335938 C 187.757812 330.59375 166.171875 330.539062 146.078125 327.226562 L 144.425781 339.152344 C 143.761719 343.789062 139.730469 347.265625 135.039062 347.265625 L 96.234375 347.265625 C 91.816406 347.265625 87.898438 344.117188 87.015625 339.757812 L 79.066406 301.722656 C 61.402344 290.023438 47.546875 275.28125 38.660156 258.886719 L 27.453125 258.945312 C 18.34375 259.109375 10.339844 251.765625 9.511719 242.550781 L 6.035156 202.914062 C 5.484375 196.621094 9.953125 190.824219 16.191406 189.722656 L 31.867188 187.015625 C 37.832031 168.910156 49.53125 152.128906 65.984375 138.21875 C 64.492188 131.871094 60.132812 115.75 52.789062 106.089844 C 51.355469 104.214844 51.023438 101.675781 51.960938 99.46875 C 52.898438 97.257812 54.996094 95.660156 57.425781 95.4375 C 69.957031 94.058594 100.757812 92.675781 121.957031 108.464844 C 139.511719 103.109375 158.058594 100.40625 177.101562 100.40625 C 255.875 100.40625 320.625 147.273438 326.367188 206.503906 L 351.816406 206.503906 C 358.824219 206.503906 364.511719 200.816406 364.511719 193.804688 C 364.511719 186.796875 358.824219 181.109375 351.816406 181.109375 C 348.777344 181.109375 345.964844 182.765625 344.527344 185.414062 C 343.09375 188.121094 343.367188 191.265625 345.355469 194.304688 C 346.792969 196.457031 346.183594 199.382812 344.03125 200.761719 C 341.878906 202.195312 338.953125 201.589844 337.574219 199.4375 C 333.707031 193.585938 333.210938 186.628906 336.304688 180.945312 C 339.394531 175.257812 345.300781 171.726562 351.816406 171.726562 C 364.015625 171.726562 373.949219 181.605469 373.949219 193.804688 Z M 317.535156 215.058594 C 317.535156 156.988281 254.550781 109.789062 177.15625 109.789062 C 158.167969 109.789062 139.785156 112.605469 122.453125 118.125 C 120.90625 118.621094 119.308594 118.289062 118.039062 117.296875 C 101.476562 103.664062 75.367188 103.496094 62.890625 104.378906 C 71.007812 117.519531 75.035156 135.679688 75.644531 138.714844 C 76.140625 140.480469 75.589844 142.414062 74.097656 143.683594 C 57.039062 157.484375 45.226562 174.375 39.929688 192.480469 C 39.429688 194.191406 37.996094 195.460938 36.230469 195.792969 L 17.738281 198.941406 C 16.246094 199.214844 15.199219 200.539062 15.308594 202.085938 L 18.839844 241.722656 C 19.226562 246.136719 22.980469 249.558594 27.398438 249.558594 C 27.398438 249.558594 27.398438 249.558594 27.453125 249.558594 L 41.527344 249.503906 C 43.296875 249.503906 44.894531 250.496094 45.722656 252.097656 C 54.003906 268.605469 67.859375 283.398438 85.800781 294.933594 C 86.847656 295.597656 87.566406 296.703125 87.84375 297.914062 L 96.179688 337.824219 L 135.039062 337.882812 L 137.46875 321.101562 C 137.632812 319.832031 138.351562 318.671875 139.402344 317.953125 C 140.449219 317.179688 141.773438 316.90625 142.988281 317.179688 C 164.957031 321.375 189.027344 321.429688 210.832031 317.292969 C 211.105469 317.234375 211.4375 317.234375 211.714844 317.234375 C 212.707031 317.234375 213.644531 317.511719 214.417969 318.121094 C 215.46875 318.835938 216.128906 319.996094 216.351562 321.265625 L 218.667969 337.882812 L 257.53125 337.9375 L 265.867188 298.355469 C 266.140625 297.144531 266.859375 296.039062 267.910156 295.375 C 299.429688 275.28125 317.535156 246.027344 317.535156 215.058594 Z M 144.367188 48.792969 C 144.367188 30.742188 159.050781 16.058594 177.101562 16.058594 C 195.152344 16.058594 209.835938 30.742188 209.835938 48.792969 C 209.835938 66.84375 195.152344 81.527344 177.101562 81.527344 C 159.050781 81.527344 144.367188 66.898438 144.367188 48.792969 Z M 153.753906 48.792969 C 153.753906 61.710938 164.242188 72.199219 177.15625 72.199219 C 190.074219 72.199219 200.5625 61.710938 200.5625 48.792969 C 200.5625 35.875 190.074219 25.386719 177.15625 25.386719 C 164.242188 25.386719 153.753906 35.929688 153.753906 48.792969 Z M 83.371094 167.640625 C 76.914062 167.640625 71.667969 172.886719 71.667969 179.34375 C 71.667969 185.800781 76.914062 191.046875 83.371094 191.046875 C 89.828125 191.046875 95.074219 185.800781 95.074219 179.34375 C 95.074219 172.828125 89.828125 167.640625 83.371094 167.640625 Z M 83.371094 167.640625 " fill-opacity="1" fill-rule="nonzero"/></g></svg>